{
  "accessors": [
    {
      "bufferView": 1,
      "componentType": 5126,
      "count": 11856,
      "max": [
        7.0813655853271484,
        7.5093793869018555,
        2.3796544075012207
      ],
      "min": [
        -5.9316983222961426,
        -6.3679237365722656,
        -1.5667766332626343
      ],
      "type": "VEC3"
    },
    {
      "bufferView": 1,
      "byteOffset": 142272,
      "componentType": 5126,
      "count": 11856,
      "max": [
        0.92478930950164795,
        0.9372255802154541,
        0.55579519271850586
      ],
      "min": [
        -0.92674607038497925,
        -0.8952479362487793,
        -1
      ],
      "type": "VEC3"
    },
    {
      "bufferView": 0,
      "componentType": 5125,
      "count": 16728,
      "max": [
        11855
      ],
      "min": [
        0
      ],
      "type": "SCALAR"
    },
    {
      "bufferView": 2,
      "componentType": 5126,
      "count": 171,
      "max": [
        3.2916667461395264
      ],
      "min": [
        0
      ],
      "type": "SCALAR"
    },
    {
      "bufferView": 3,
      "componentType": 5126,
      "count": 171,
      "max": [
        1.1605910913203843e-05,
        337.00051879882812,
        34.233783721923828
      ],
      "min": [
        1.1605910913203843e-05,
        337.00051879882812,
        -338.92623901367188
      ],
      "type": "VEC3"
    }
  ],
  "animations": [
    {
      "channels": [
        {
          "sampler": 0,
          "target": {
            "node": 10,
            "path": "translation"
          }
        }
      ],
      "name": "Cone|ConeAction",
      "samplers": [
        {
          "input": 3,
          "interpolation": "LINEAR",
          "output": 4
        }
      ]
    }
  ],
  "asset": {
    "generator": "Sketchfab (OSG glTF plugin)",
    "version": "2.0"
  },
  "bufferViews": [
    {
      "buffer": 0,
      "byteLength": 66912,
      "byteOffset": 0,
      "name": "floatBufferViews",
      "target": 34963
    },
    {
      "buffer": 0,
      "byteLength": 284544,
      "byteOffset": 66912,
      "byteStride": 12,
      "name": "floatBufferViews",
      "target": 34962
    },
    {
      "buffer": 0,
      "byteLength": 684,
      "byteOffset": 351456,
      "name": "floatBufferViews"
    },
    {
      "buffer": 0,
      "byteLength": 2052,
      "byteOffset": 352140,
      "byteStride": 12,
      "name": "floatBufferViews"
    }
  ],
  "buffers": [
    {
      "byteLength": 354192,
      "uri": "scene.bin"
    }
  ],
  "materials": [
    {
      "doubleSided": true,
      "emissiveFactor": [
        0,
        0,
        0
      ],
      "name": "Scene - Root",
      "pbrMetallicRoughness": {
        "baseColorFactor": [
          1,
          1,
          1,
          1
        ],
        "metallicFactor": 0,
        "roughnessFactor": 0.59999999999999998
      }
    }
  ],
  "meshes": [
    {
      "name": "Cone__0",
      "primitives": [
        {
          "attributes": {
            "NORMAL": 1,
            "POSITION": 0
          },
          "indices": 2,
          "material": 0,
          "mode": 4
        }
      ]
    }
  ],
  "nodes": [
    {
      "children": [
        1
      ],
      "name": "RootNode (gltf orientation matrix)",
      "rotation": [
        -0.70710678118654746,
        -0,
        -0,
        0.70710678118654757
      ]
    },
    {
      "children": [
        2
      ],
      "name": "RootNode (model correction matrix)"
    },
    {
      "children": [
        3
      ],
      "matrix": [
        1,
        0,
        0,
        0,
        0,
        0,
        1,
        0,
        0,
        -1,
        0,
        0,
        0,
        0,
        0,
        1
      ],
      "name": "a8293b75f3a344c0a663ee10c233d500.fbx"
    },
    {
      "children": [
        4
      ],
      "name": ""
    },
    {
      "children": [
        5,
        8,
        10
      ],
      "name": "RootNode"
    },
    {
      "children": [
        6
      ],
      "name": "Lamp",
      "rotation": [
        0.16907571256160736,
        0.75588035583496094,
        -0.27217131853103638,
        0.57094746828079224
      ],
      "scale": [
        100.00000762939453,
        100,
        100
      ],
      "translation": [
        407.62454223632812,
        590.38623046875,
        -100.54539489746094
      ]
    },
    {
      "children": [
        7
      ],
      "matrix": [
        1,
        0,
        0,
        0,
        0,
        2.2204460492503131e-16,
        1,
        0,
        0,
        -1,
        2.2204460492503131e-16,
        0,
        0,
        0,
        0,
        1
      ],
      "name": ""
    },
    {
      "name": ""
    },
    {
      "children": [
        9
      ],
      "name": "Camera",
      "rotation": [
        -0.21255728602409363,
        0.9047970175743103,
        -0.084389366209506989,
        0.35922172665596008
      ],
      "scale": [
        100,
        100.00000762939453,
        99.999992370605469
      ],
      "translation": [
        748.1131591796875,
        534.36651611328125,
        650.76397705078125
      ]
    },
    {
      "name": ""
    },
    {
      "children": [
        12
      ],
      "name": "Cone",
      "rotation": [
        -2.443810274144198e-07,
        1.1102231569740545e-16,
        -1.1102231569740545e-16,
        1
      ],
      "scale": [
        100,
        100,
        100
      ],
      "translation": [
        1.1605910913203843e-05,
        337.00051879882812,
        -338.92623901367188
      ]
    },
    {
      "mesh": 0,
      "name": "Cone__0"
    },
    {
      "children": [
        11
      ],
      "name": "Geode"
    }
  ],
  "scene": 0,
  "scenes": [
    {
      "name": "OSG_Scene",
      "nodes": [
        0
      ]
    }
  ]
}

