{
  "accessors": [
    {
      "bufferView": 1,
      "componentType": 5126,
      "count": 65532,
      "max": [
        2.8473834991455078,
        2.5679488182067871,
        3.0843005180358887
      ],
      "min": [
        -5.3777389526367188,
        -1.5683521032333374,
        -3.9758133888244629
      ],
      "type": "VEC3"
    },
    {
      "bufferView": 1,
      "byteOffset": 786384,
      "componentType": 5126,
      "count": 65532,
      "max": [
        0.99947887659072876,
        0.99981218576431274,
        1
      ],
      "min": [
        -0.99996626377105713,
        -0.99896180629730225,
        -0.99996179342269897
      ],
      "type": "VEC3"
    },
    {
      "bufferView": 2,
      "componentType": 5126,
      "count": 65532,
      "max": [
        1,
        0.99927395582199097,
        0.9998820424079895,
        1
      ],
      "min": [
        -0.99999517202377319,
        -0.99983912706375122,
        -0.99999892711639404,
        -1
      ],
      "type": "VEC4"
    },
    {
      "bufferView": 0,
      "componentType": 5125,
      "count": 129186,
      "max": [
        65531
      ],
      "min": [
        0
      ],
      "type": "SCALAR"
    },
    {
      "bufferView": 1,
      "byteOffset": 1572768,
      "componentType": 5126,
      "count": 45140,
      "max": [
        2.85898756980896,
        2.7239718437194824,
        3.0649228096008301
      ],
      "min": [
        -5.3590545654296875,
        -2.2614760398864746,
        -5.253148078918457
      ],
      "type": "VEC3"
    },
    {
      "bufferView": 1,
      "byteOffset": 2114448,
      "componentType": 5126,
      "count": 45140,
      "max": [
        0.99992036819458008,
        0.99903720617294312,
        0.99899852275848389
      ],
      "min": [
        -0.95589077472686768,
        -0.99970382452011108,
        -0.99993175268173218
      ],
      "type": "VEC3"
    },
    {
      "bufferView": 2,
      "byteOffset": 1048512,
      "componentType": 5126,
      "count": 45140,
      "max": [
        0.99999910593032837,
        0.9232524037361145,
        0.99997150897979736,
        1
      ],
      "min": [
        -0.99999672174453735,
        -0.98362082242965698,
        -0.9999232292175293,
        -1
      ],
      "type": "VEC4"
    },
    {
      "bufferView": 0,
      "byteOffset": 516744,
      "componentType": 5125,
      "count": 67710,
      "max": [
        45139
      ],
      "min": [
        0
      ],
      "type": "SCALAR"
    }
  ],
  "asset": {
    "generator": "Sketchfab (OSG glTF plugin)",
    "version": "2.0"
  },
  "bufferViews": [
    {
      "buffer": 0,
      "byteLength": 787584,
      "byteOffset": 0,
      "name": "floatBufferViews",
      "target": 34963
    },
    {
      "buffer": 0,
      "byteLength": 2656128,
      "byteOffset": 787584,
      "byteStride": 12,
      "name": "floatBufferViews",
      "target": 34962
    },
    {
      "buffer": 0,
      "byteLength": 1770752,
      "byteOffset": 3443712,
      "byteStride": 16,
      "name": "floatBufferViews",
      "target": 34962
    }
  ],
  "buffers": [
    {
      "byteLength": 5214464,
      "uri": "scene.bin"
    }
  ],
  "materials": [
    {
      "doubleSided": true,
      "emissiveFactor": [
        0,
        0,
        0
      ],
      "name": "Material.001",
      "pbrMetallicRoughness": {
        "baseColorFactor": [
          0.80000000000000004,
          0.80000000000000004,
          0.80000000000000004,
          1
        ],
        "metallicFactor": 0,
        "roughnessFactor": 0.59999999999999998
      }
    }
  ],
  "meshes": [
    {
      "name": "Plane_Material.001_0",
      "primitives": [
        {
          "attributes": {
            "NORMAL": 1,
            "POSITION": 0,
            "TANGENT": 2
          },
          "indices": 3,
          "material": 0,
          "mode": 4
        }
      ]
    },
    {
      "name": "Plane_Material.001_0",
      "primitives": [
        {
          "attributes": {
            "NORMAL": 5,
            "POSITION": 4,
            "TANGENT": 6
          },
          "indices": 7,
          "material": 0,
          "mode": 4
        }
      ]
    }
  ],
  "nodes": [
    {
      "children": [
        1
      ],
      "name": "RootNode (gltf orientation matrix)",
      "rotation": [
        -0.70710678118654746,
        -0,
        -0,
        0.70710678118654757
      ]
    },
    {
      "children": [
        2
      ],
      "name": "RootNode (model correction matrix)"
    },
    {
      "children": [
        3
      ],
      "matrix": [
        1,
        0,
        0,
        0,
        0,
        0,
        1,
        0,
        0,
        -1,
        0,
        0,
        0,
        0,
        0,
        1
      ],
      "name": "f1944b8220cc4652902a37d78546b553.fbx"
    },
    {
      "children": [
        4,
        8,
        11
      ],
      "name": "RootNode"
    },
    {
      "children": [
        7
      ],
      "matrix": [
        389.07345581054688,
        0,
        0,
        0,
        0,
        -6.3388111753981988e-05,
        -389.07345581054176,
        0,
        0,
        389.07345581054176,
        -6.3388111753981988e-05,
        0,
        0,
        0,
        0,
        1
      ],
      "name": "Plane"
    },
    {
      "mesh": 0,
      "name": "Plane_Material.001_0"
    },
    {
      "mesh": 1,
      "name": "Plane_Material.001_0"
    },
    {
      "children": [
        5,
        6
      ],
      "name": "Geode"
    },
    {
      "children": [
        9
      ],
      "matrix": [
        -29.08647719990347,
        -5.5189064575668629,
        -95.517119101714371,
        0,
        56.639309131094492,
        79.467234285632031,
        -21.839123978419661,
        0,
        77.110087759933748,
        -60.452463565620441,
        -19.988346967737169,
        0,
        407.62454223632812,
        590.38623046875,
        -100.54539489746094,
        1
      ],
      "name": "Lamp"
    },
    {
      "children": [
        10
      ],
      "matrix": [
        1,
        0,
        0,
        0,
        0,
        2.2204460492503131e-16,
        1,
        0,
        0,
        -1,
        2.2204460492503131e-16,
        0,
        0,
        0,
        0,
        1
      ],
      "name": ""
    },
    {
      "name": ""
    },
    {
      "children": [
        12
      ],
      "matrix": [
        52.12188180707895,
        -38.154873607085129,
        -76.338162519910384,
        0,
        21.514624150622865,
        92.434865263516414,
        -31.510555461529922,
        0,
        82.585902880768316,
        2.572476624528568e-05,
        56.387677476968385,
        0,
        -2753.221435546875,
        2226.164794921875,
        4297.0205078125,
        1
      ],
      "name": "Camera"
    },
    {
      "name": ""
    }
  ],
  "scene": 0,
  "scenes": [
    {
      "name": "OSG_Scene",
      "nodes": [
        0
      ]
    }
  ]
}

