{
  "accessors": [
    {
      "bufferView": 1,
      "componentType": 5126,
      "count": 23635,
      "max": [
        3.6010100841522217,
        6.8920297622680664,
        8.0793695449829102
      ],
      "min": [
        -3.6010100841522217,
        -4.7586698532104492,
        -5.6857700347900391
      ],
      "type": "VEC3"
    },
    {
      "bufferView": 1,
      "byteOffset": 283620,
      "componentType": 5126,
      "count": 23635,
      "max": [
        0.9999886155128479,
        0.9997144341468811,
        0.99999350309371948
      ],
      "min": [
        -0.9999886155128479,
        -0.99999529123306274,
        -0.99985653162002563
      ],
      "type": "VEC3"
    },
    {
      "bufferView": 0,
      "componentType": 5125,
      "count": 140688,
      "max": [
        23634
      ],
      "min": [
        0
      ],
      "type": "SCALAR"
    }
  ],
  "asset": {
    "generator": "Sketchfab (OSG glTF plugin)",
    "version": "2.0"
  },
  "bufferViews": [
    {
      "buffer": 0,
      "byteLength": 562752,
      "byteOffset": 0,
      "name": "floatBufferViews",
      "target": 34963
    },
    {
      "buffer": 0,
      "byteLength": 567240,
      "byteOffset": 562752,
      "byteStride": 12,
      "name": "floatBufferViews",
      "target": 34962
    }
  ],
  "buffers": [
    {
      "byteLength": 1129992,
      "uri": "scene.bin"
    }
  ],
  "extensionsRequired": [
    "KHR_materials_pbrSpecularGlossiness"
  ],
  "extensionsUsed": [
    "KHR_materials_pbrSpecularGlossiness"
  ],
  "materials": [
    {
      "doubleSided": false,
      "emissiveFactor": [
        0,
        0,
        0
      ],
      "extensions": {
        "KHR_materials_pbrSpecularGlossiness": {
          "diffuseFactor": [
            0.69940240549999999,
            0.43069987609999999,
            0.43069987609999999,
            1
          ],
          "glossinessFactor": 1,
          "specularFactor": [
            0.056592987800000001,
            0.056592987800000001,
            0.056592987800000001
          ]
        }
      },
      "name": "Material.002"
    }
  ],
  "meshes": [
    {
      "name": "head_0",
      "primitives": [
        {
          "attributes": {
            "NORMAL": 1,
            "POSITION": 0
          },
          "indices": 2,
          "material": 0,
          "mode": 4
        }
      ]
    }
  ],
  "nodes": [
    {
      "children": [
        1
      ],
      "name": "RootNode (gltf orientation matrix)",
      "rotation": [
        -0.70710678118654746,
        -0,
        -0,
        0.70710678118654757
      ]
    },
    {
      "children": [
        2
      ],
      "name": "RootNode (model correction matrix)"
    },
    {
      "children": [
        3,
        6
      ],
      "name": "Root"
    },
    {
      "children": [
        5
      ],
      "matrix": [
        0.6263200000000001,
        0,
        -0.075510000000000008,
        0,
        -0.013090000000000003,
        0.62130000000000007,
        -0.10854000000000001,
        0,
        0.074360000000000009,
        0.10933000000000001,
        0.61684000000000017,
        0,
        0.22967000000000001,
        -1.7422000000000002,
        4.4507600000000007,
        1
      ],
      "name": "head"
    },
    {
      "mesh": 0,
      "name": "head_0"
    },
    {
      "children": [
        4
      ],
      "name": "Geode"
    },
    {
      "children": [
        7
      ],
      "matrix": [
        -0.29086000000000006,
        0.95517000000000007,
        -0.05519000000000001,
        0,
        -0.77110000000000001,
        -0.19988000000000003,
        0.60452000000000006,
        0,
        0.56639000000000006,
        0.21839000000000003,
        0.7946700000000001,
        0,
        4.0762500000000008,
        1.00545,
        5.9038600000000008,
        1
      ],
      "name": "Lamp"
    },
    {
      "name": "Lamp"
    }
  ],
  "scene": 0,
  "scenes": [
    {
      "name": "OSG_Scene",
      "nodes": [
        0
      ]
    }
  ]
}

