# Blender v2.77 (sub 0) OBJ File: 'Low_Poly_Bush_001.blend'
# www.blender.org
mtllib Low_Poly_Bush_001.mtl
o Low_Poly_Bush_001_Cube
v -0.436480 1.184881 0.422466
v -0.683174 0.071874 -1.162908
v -0.123734 0.833239 -1.063211
v -1.640244 0.065718 -0.334707
v 0.956966 0.613588 0.979317
v -0.152433 0.280498 1.398005
v -1.201473 0.421947 0.944149
v -1.160893 -0.939446 0.205519
v 0.551610 1.103756 -0.358359
v -0.359045 -1.148919 1.131384
v -0.247706 -1.145213 -0.722998
v 0.998067 0.441747 -0.983630
v 0.948427 -0.950685 -0.447690
v 0.243685 -0.236344 -1.434691
v 1.320872 0.389830 0.057865
v 0.957761 -0.945234 0.496312
v 0.603783 -0.234707 1.245493
v -0.937813 1.012152 -0.393970
vn 0.9642 -0.2649 -0.0080
vn 0.0297 0.9741 -0.2243
vn 0.9424 -0.1489 -0.2995
vn 0.7212 0.6661 -0.1903
vn 0.1563 -0.9877 0.0074
vn -0.2353 -0.9718 -0.0161
vn 0.8194 -0.1693 0.5477
vn 0.3045 0.7545 -0.5814
vn -0.3831 -0.4321 -0.8164
vn 0.1972 0.3814 -0.9031
vn 0.3036 0.1679 0.9379
vn 0.9130 -0.1203 0.3898
vn -0.6122 0.7609 0.2150
vn -0.8994 -0.2288 0.3723
vn -0.1208 0.9600 -0.2527
vn -0.2090 0.6861 0.6969
vn 0.6557 0.7511 0.0765
vn -0.7487 -0.3332 0.5730
vn 0.2677 -0.6796 -0.6830
vn 0.0330 0.7377 0.6743
vn 0.0665 -0.1922 0.9791
vn -0.6005 0.4024 -0.6910
vn -0.6425 -0.5773 -0.5040
vn 0.1596 -0.9872 0.0041
vn -0.1898 0.2633 -0.9459
vn -0.5819 -0.4525 -0.6758
vn -0.7952 0.5969 0.1066
vn -0.4999 0.4631 -0.7319
vn 0.4313 -0.5440 0.7197
vn 0.6686 -0.2877 -0.6857
vn 0.2777 0.9261 0.2552
vn -0.4071 -0.1103 0.9067
usemtl Low_Poly_Bush_001_Mat
s off
f 15//1 16//1 13//1
f 3//2 18//2 1//2
f 15//3 13//3 12//3
f 15//4 12//4 9//4
f 10//5 11//5 16//5
f 8//6 11//6 10//6
f 5//7 17//7 16//7
f 12//8 3//8 9//8
f 2//9 14//9 11//9
f 3//10 12//10 14//10
f 6//11 17//11 5//11
f 15//12 5//12 16//12
f 1//13 18//13 7//13
f 8//14 7//14 4//14
f 9//15 3//15 1//15
f 6//16 1//16 7//16
f 15//17 9//17 5//17
f 10//18 7//18 8//18
f 14//19 13//19 11//19
f 1//20 6//20 5//20
f 10//21 17//21 6//21
f 2//22 4//22 18//22
f 4//23 11//23 8//23
f 11//24 13//24 16//24
f 2//25 3//25 14//25
f 2//26 11//26 4//26
f 18//27 4//27 7//27
f 3//28 2//28 18//28
f 17//29 10//29 16//29
f 14//30 12//30 13//30
f 1//31 5//31 9//31
f 7//32 10//32 6//32
