# Blender v2.77 (sub 0) OBJ File: 'Low_Poly_Tree_003.blend'
# www.blender.org
mtllib Low_Poly_Tree_003.mtl
o Low_Poly_Tree_003_Circle
v 3.178572 4.921968 -0.407500
v 2.774175 4.978223 -1.296897
v 2.562111 6.325333 -0.312891
v 2.761706 4.674392 -0.222644
v 1.771115 4.854580 -0.215412
v 1.589665 5.056107 -1.205822
v 3.578638 6.011142 -1.435412
v 2.356091 5.189450 0.605764
v 3.594867 5.641863 -0.559687
v 1.543040 5.645734 -1.618985
v 1.187807 5.538092 -0.269724
v 2.796463 5.995207 -2.005265
v 1.916273 5.998899 0.103966
v 1.422927 6.217033 -0.838064
v 2.275582 6.526457 -1.309974
v -2.126845 5.399633 -1.122755
v -3.627402 5.280070 -0.443246
v -3.921747 5.775944 0.437908
v -3.709173 5.184641 0.683968
v -1.736896 5.211658 0.225639
v -2.181303 4.970925 1.054074
v -2.201576 6.296703 -0.307266
v -2.861496 5.867748 -1.242340
v -3.242948 6.028351 0.049379
v -1.748565 5.723222 -0.548903
v -2.648262 4.640933 -0.045369
v -3.181444 4.660943 0.332079
v -2.879773 6.155151 0.768057
v -3.072833 5.299339 1.321400
v -1.972107 6.098386 0.530270
v 0.307685 7.534160 -2.164833
v -0.895107 8.968033 1.246269
v 0.105735 8.848484 -1.789909
v 0.217494 9.833412 0.061650
v 1.620377 8.648414 -0.820221
v 0.035360 9.494196 -1.274158
v 1.324881 9.302453 -0.290049
v -1.058169 9.763770 0.261546
v -1.693092 8.368197 -1.039237
v 0.304381 8.808620 1.371534
v -1.250214 9.687517 -0.383985
v 0.824947 8.365476 -1.869901
v -1.929316 8.768470 0.348902
v -2.054440 7.405288 0.328400
v 1.194263 7.764335 1.530855
v -1.715105 7.235024 -0.987994
v 1.581608 7.642296 0.870708
v -1.509050 6.685970 1.011297
v 0.254467 6.756371 -1.596870
v 1.001285 5.903885 0.501250
v -1.800937 7.672843 1.053121
v -0.212624 6.044374 1.055283
v -1.137484 5.990240 0.181042
v -0.857993 6.162130 -1.118501
v 0.658776 5.736102 -0.690945
v -0.243616 5.584054 -0.254642
v 1.622443 7.633561 -1.152264
v 0.254879 6.736851 1.773822
v -0.571739 6.366741 -1.440623
v -1.290906 7.594270 1.625201
v 1.431726 8.966185 0.745851
v -0.870470 7.841028 -1.926017
v -1.421151 9.109136 -0.721740
v -0.158497 -0.334971 -1.471825
v -1.392897 -0.334971 -0.211297
v -0.575514 -0.334971 1.352211
v 1.164056 -0.334971 1.057985
v 1.421786 -0.334971 -0.687365
v 0.000000 8.679323 0.000000
v -0.038497 6.963615 -0.174339
v -0.178489 6.963781 -0.051740
v -0.084550 6.963428 0.124366
v 0.123446 6.963876 0.012740
v -1.629157 4.547271 -0.287997
v -0.234251 4.662424 -0.540479
v -0.292779 4.807384 0.242496
v 0.146768 5.276490 -0.038655
v -0.588673 5.257936 -0.197527
v -1.582126 4.692189 0.107565
v -1.763514 4.839728 -0.360229
v -2.361438 4.847580 -0.092492
v 0.284097 4.252620 -0.107949
v -0.638102 4.264098 -0.258746
v -1.654046 4.949832 -0.076667
v -0.118327 1.158419 -0.816751
v -0.348498 1.158418 0.741964
v 0.611650 1.158794 0.579567
v -0.799649 1.162469 -0.121008
v 0.753904 1.160905 -0.383772
v -2.235460 4.923097 -0.215222
v -2.125914 5.016792 0.054010
v -2.252298 4.868116 0.142655
v -2.812778 5.525449 0.103007
v 1.014799 5.015192 0.012830
v 0.957361 4.362792 0.022273
v 0.956852 4.608163 -0.199376
v 0.971310 4.705763 0.259419
v 1.962894 4.990860 -0.233094
v 1.866471 5.081097 -0.114362
v 1.903167 5.074934 -0.316325
v 1.803498 5.191010 -0.198050
v 2.556402 5.711796 -0.298453
v -0.162000 2.743816 -0.695244
v -0.718875 2.744217 -0.186001
v 0.510174 2.743958 0.002081
v -0.314859 2.743816 0.514062
vn -0.8796 0.0774 0.4694
vn 0.7551 0.0495 -0.6537
vn -0.0709 0.5670 0.8206
vn -0.6560 0.0909 -0.7492
vn -0.0174 -0.6720 0.7404
vn 0.2908 0.6089 0.7380
vn 0.0474 0.9248 -0.3774
vn -0.8694 0.1694 0.4641
vn -0.6429 0.2174 -0.7344
vn 0.0281 0.4944 0.8688
vn -0.5991 0.0419 -0.7995
vn 0.9826 0.1159 0.1453
vn 0.4728 -0.0203 0.8809
vn 0.4724 0.0405 0.8804
vn -0.0482 0.4768 -0.8777
vn 0.6769 0.0845 -0.7312
vn 0.7557 0.0304 -0.6542
vn -0.2395 -0.9513 0.1943
vn 0.9143 0.3816 0.1358
vn 0.1559 0.3532 0.9225
vn -0.8428 0.3072 0.4420
vn 0.4147 0.3562 -0.8374
vn -0.6786 0.3090 -0.6663
vn -0.0664 -0.5656 0.8220
vn -0.0456 -0.2592 -0.9647
vn -0.8577 0.0761 0.5084
vn -0.4134 -0.5225 -0.7458
vn 0.1996 -0.5806 -0.7893
vn 0.1829 0.4339 -0.8822
vn 0.0696 0.6157 0.7849
vn 0.4798 -0.4657 0.7436
vn 0.2865 0.2992 0.9102
vn -0.6218 -0.1953 -0.7584
vn -0.7143 -0.5860 0.3827
vn 0.5070 0.7289 -0.4600
vn -0.3245 0.4732 -0.8190
vn 0.2065 -0.6103 -0.7647
vn -0.6748 0.0041 -0.7380
vn 0.6933 0.2696 -0.6683
vn -0.8643 0.0646 0.4988
vn -0.4159 0.4488 -0.7909
vn -0.2348 0.5001 0.8335
vn 0.4534 -0.4434 -0.7732
vn 0.5504 -0.3860 0.7403
vn 0.5849 0.0997 0.8050
vn 0.4987 0.3247 0.8037
vn -0.1363 0.6449 0.7520
vn -0.2662 -0.8944 0.3593
vn 0.1538 0.4063 0.9007
vn 0.0384 0.9388 -0.3423
vn -0.7697 0.1088 0.6290
vn -0.5142 0.1773 -0.8392
vn 0.1358 0.6057 0.7840
vn -0.6748 0.0005 -0.7380
vn 0.5438 -0.0065 0.8392
vn -0.2949 0.9236 -0.2448
vn 0.7188 0.0572 -0.6929
vn 0.7752 0.0344 -0.6307
vn -0.2703 -0.8932 0.3594
vn 0.9147 0.3810 0.1351
vn 0.1560 0.3531 0.9225
vn -0.8430 0.3083 0.4407
vn 0.4156 0.3555 -0.8372
vn -0.6793 0.3101 -0.6652
vn -0.0572 -0.5750 0.8162
vn -0.1563 -0.4598 -0.8742
vn -0.8640 0.0698 0.4987
vn -0.3318 -0.3671 -0.8690
vn 0.2455 -0.6495 -0.7196
vn 0.2582 0.5102 -0.8204
vn 0.0671 0.6285 0.7749
vn 0.5042 -0.5049 0.7006
vn -0.3472 0.5062 -0.7894
vn 0.2242 -0.6530 -0.7234
vn -0.7140 0.0339 -0.6994
vn 0.4430 0.0806 -0.8929
vn -0.8828 0.0851 0.4619
vn 0.5221 0.1396 0.8414
vn 0.1651 0.1369 0.9767
vn 0.4132 -0.8775 -0.2434
vn 0.7636 -0.5219 -0.3802
vn 0.5177 -0.4966 -0.6967
vn -0.2051 0.9463 0.2498
vn -0.2420 0.9097 0.3374
vn 0.3732 0.9244 0.0792
vn 0.2959 0.8529 -0.4300
vn -0.3830 0.5728 -0.7247
vn -0.5367 0.6395 -0.5504
vn -0.6314 0.6146 0.4730
vn 0.2030 0.5932 0.7790
vn 0.5751 0.7575 0.3088
vn -0.9614 0.1297 -0.2428
vn -0.9287 -0.2593 -0.2652
vn -0.5467 0.2061 0.8116
vn -0.1742 -0.9470 -0.2699
vn 0.4957 0.4900 0.7171
vn 0.7102 -0.2736 0.6487
vn 0.7410 -0.6137 -0.2725
vn -0.1003 -0.5763 -0.8111
vn -0.0938 -0.5676 -0.8179
vn -0.0786 -0.9796 -0.1849
vn 0.5860 -0.5276 0.6150
vn 0.4811 0.5891 -0.6493
vn -0.3100 0.9280 -0.2069
vn 0.8427 -0.4433 -0.3055
vn -0.2270 -0.7411 -0.6318
vn -0.9227 -0.3727 -0.0985
vn 0.5676 -0.7769 -0.2724
vn -0.3511 -0.8197 -0.4526
vn 0.0142 0.9834 -0.1807
vn 0.7706 0.6344 -0.0609
vn 0.5233 -0.8515 0.0333
vn -0.3939 -0.7520 0.5285
vn 0.8715 0.0642 0.4862
vn 0.3807 0.3306 0.8636
vn 0.2499 0.4854 0.8379
vn -0.1397 -0.8250 0.5477
vn 0.1296 -0.9635 0.2342
vn 0.9687 0.2135 0.1264
vn -0.7105 0.0370 0.7027
vn -0.1536 0.9513 0.2673
vn -0.4282 0.5568 0.7118
vn -0.3443 0.9388 0.0084
vn -0.7361 -0.6679 -0.1099
vn -0.4565 0.8564 -0.2413
vn -0.7913 0.3806 -0.4785
vn 0.4678 0.6305 -0.6194
vn -0.2800 -0.6254 -0.7283
vn -0.1282 0.2538 -0.9587
vn -0.5649 -0.3611 -0.7419
vn 0.4937 0.5750 -0.6525
vn -0.4194 0.5470 -0.7245
vn 0.0406 0.7883 0.6140
vn -0.4433 0.5275 -0.7248
vn -0.5729 -0.3587 -0.7370
vn -0.9681 0.0075 -0.2505
vn -0.0694 0.9929 -0.0967
vn -0.2729 -0.3503 -0.8960
vn 0.4786 0.8484 0.2261
vn -0.7378 -0.0162 -0.6748
vn 0.2202 0.7753 0.5920
vn -0.5976 0.5724 0.5615
vn 0.3433 0.8981 -0.2749
vn -0.4432 0.5295 -0.7233
vn 0.0855 0.2854 -0.9546
vn 0.7523 0.2062 -0.6257
vn -0.4193 0.4832 -0.7686
vn 0.4332 0.7321 -0.5256
vn 0.0548 0.7810 0.6221
vn -0.8603 0.4318 -0.2709
vn -0.8651 0.4178 -0.2777
vn -0.0226 0.9697 -0.2432
vn -0.9498 0.0826 0.3017
vn -0.7387 0.6590 0.1419
vn -0.9768 0.0926 -0.1929
vn 0.9202 0.3901 0.0317
vn 0.5114 0.6686 -0.5398
vn 0.8649 0.1433 0.4810
vn 0.9882 0.1208 0.0945
vn -0.6675 0.3705 0.6459
vn 0.6118 -0.1024 -0.7843
vn 0.6940 -0.5156 0.5025
vn 0.9470 -0.3205 0.0205
vn -0.7401 -0.2454 0.6261
vn 0.9998 -0.0046 0.0202
vn -0.6508 0.3551 0.6711
vn 0.0227 0.2104 0.9774
vn -0.0625 0.2821 0.9574
vn 0.2027 -0.9760 0.0791
vn 0.5461 -0.5181 -0.6583
vn 0.5208 -0.4421 -0.7303
vn -0.0663 -0.8145 -0.5763
vn -0.4895 -0.8445 -0.2170
vn -0.7720 -0.5871 -0.2437
vn -0.3389 -0.4696 0.8152
vn -0.2548 -0.9104 0.3260
vn -0.0990 -0.8581 -0.5038
vn 0.0256 0.1721 0.9848
vn 0.8589 -0.4798 -0.1792
vn 0.1914 -0.7660 0.6137
vn 0.6807 -0.3625 0.6366
vn 0.1278 -0.5906 -0.7968
vn 0.3843 0.4504 0.8059
vn -0.3105 -0.5755 0.7566
vn 0.1486 -0.6230 -0.7680
vn 0.0417 -0.9429 0.3304
vn -0.8959 -0.4433 -0.0294
vn -0.7416 -0.6625 -0.1055
vn -0.8714 -0.2749 0.4063
vn -0.4032 -0.7822 0.4750
vn -0.7609 -0.6488 0.0074
vn -0.6142 -0.4741 0.6309
vn -0.1551 -0.8712 0.4657
usemtl Low_Poly_Tree_003_Mat_01
s off
f 72//1 69//1 71//1
f 70//2 69//2 73//2
f 78//3 84//3 79//3
f 71//4 69//4 70//4
f 83//5 76//5 79//5
f 79//6 84//6 91//6
f 84//7 80//7 90//7
f 72//8 71//8 78//8
f 78//9 71//9 70//9
f 77//10 76//10 97//10
f 83//11 75//11 103//11
f 89//12 105//12 87//12
f 77//13 73//13 72//13
f 73//14 69//14 72//14
f 78//15 75//15 80//15
f 103//16 75//16 82//16
f 70//17 73//17 77//17
f 79//18 92//18 81//18
f 89//19 87//19 67//19
f 87//20 86//20 66//20
f 86//21 88//21 65//21
f 64//22 85//22 89//22
f 65//23 88//23 85//23
f 82//24 95//24 97//24
f 83//25 74//25 80//25
f 106//26 76//26 83//26
f 74//27 81//27 90//27
f 82//28 75//28 96//28
f 77//29 94//29 96//29
f 94//30 97//30 99//30
f 95//31 98//31 99//31
f 92//32 91//32 93//32
f 90//33 81//33 93//33
f 81//34 92//34 93//34
f 91//35 90//35 93//35
f 96//36 94//36 101//36
f 96//37 100//37 98//37
f 88//38 104//38 103//38
f 103//39 105//39 89//39
f 106//40 104//40 88//40
f 100//41 101//41 102//41
f 101//42 99//42 102//42
f 98//43 100//43 102//43
f 99//44 98//44 102//44
f 82//45 76//45 106//45
f 87//46 105//46 106//46
f 76//47 78//47 79//47
f 74//48 83//48 79//48
f 92//49 79//49 91//49
f 91//50 84//50 90//50
f 76//51 72//51 78//51
f 75//52 78//52 70//52
f 94//53 77//53 97//53
f 104//54 83//54 103//54
f 76//55 77//55 72//55
f 84//56 78//56 80//56
f 105//57 103//57 82//57
f 75//58 70//58 77//58
f 74//59 79//59 81//59
f 68//60 89//60 67//60
f 67//61 87//61 66//61
f 66//62 86//62 65//62
f 68//63 64//63 89//63
f 64//64 65//64 85//64
f 76//65 82//65 97//65
f 75//66 83//66 80//66
f 104//67 106//67 83//67
f 80//68 74//68 90//68
f 95//69 82//69 96//69
f 75//70 77//70 96//70
f 101//71 94//71 99//71
f 97//72 95//72 99//72
f 100//73 96//73 101//73
f 95//74 96//74 98//74
f 85//75 88//75 103//75
f 85//76 103//76 89//76
f 86//77 106//77 88//77
f 105//78 82//78 106//78
f 86//79 87//79 106//79
usemtl Low_Poly_Tree_003_Mat_02
f 1//80 4//80 2//80
f 1//81 2//81 9//81
f 2//82 12//82 7//82
f 15//83 14//83 3//83
f 14//84 13//84 3//84
f 3//85 7//85 15//85
f 12//86 15//86 7//86
f 12//87 10//87 15//87
f 10//88 14//88 15//88
f 11//89 13//89 14//89
f 8//90 3//90 13//90
f 9//91 7//91 3//91
f 10//92 11//92 14//92
f 10//93 6//93 11//93
f 11//94 8//94 13//94
f 4//95 5//95 2//95
f 8//96 9//96 3//96
f 8//97 1//97 9//97
f 9//98 2//98 7//98
f 6//99 10//99 2//99
f 2//100 10//100 12//100
f 5//101 6//101 2//101
f 4//102 1//102 8//102
f 16//103 23//103 25//103
f 23//104 24//104 22//104
f 16//105 25//105 20//105
f 17//106 16//106 26//106
f 18//107 17//107 19//107
f 16//108 20//108 26//108
f 17//109 26//109 27//109
f 24//110 28//110 30//110
f 22//111 30//111 25//111
f 26//112 20//112 21//112
f 19//113 27//113 29//113
f 20//114 30//114 21//114
f 30//115 29//115 21//115
f 30//116 28//116 29//116
f 29//117 27//117 21//117
f 27//118 26//118 21//118
f 25//119 30//119 20//119
f 18//120 19//120 29//120
f 22//121 24//121 30//121
f 28//122 18//122 29//122
f 28//123 24//123 18//123
f 19//124 17//124 27//124
f 23//125 18//125 24//125
f 23//126 17//126 18//126
f 25//127 23//127 22//127
f 23//128 16//128 17//128
f 31//129 62//129 33//129
f 46//130 62//130 54//130
f 35//131 33//131 36//131
f 36//132 63//132 41//132
f 40//133 34//133 32//133
f 62//134 39//134 33//134
f 62//135 59//135 54//135
f 46//136 44//136 39//136
f 34//137 41//137 38//137
f 59//138 62//138 31//138
f 61//139 37//139 34//139
f 39//140 62//140 46//140
f 61//141 34//141 40//141
f 43//142 32//142 38//142
f 36//143 34//143 37//143
f 36//144 33//144 39//144
f 33//145 42//145 31//145
f 35//146 57//146 42//146
f 63//147 36//147 39//147
f 35//148 42//148 33//148
f 38//149 32//149 34//149
f 39//150 43//150 63//150
f 41//151 63//151 43//151
f 41//152 34//152 36//152
f 43//153 44//153 51//153
f 38//154 41//154 43//154
f 39//155 44//155 43//155
f 35//156 37//156 61//156
f 37//157 35//157 36//157
f 47//158 61//158 45//158
f 35//159 61//159 47//159
f 51//160 60//160 32//160
f 42//161 57//161 31//161
f 47//162 45//162 58//162
f 47//163 50//163 57//163
f 60//164 51//164 48//164
f 35//165 47//165 57//165
f 43//166 51//166 32//166
f 45//167 60//167 58//167
f 40//168 32//168 60//168
f 56//169 55//169 50//169
f 31//170 57//170 49//170
f 57//171 55//171 49//171
f 54//172 59//172 55//172
f 56//173 53//173 54//173
f 53//174 46//174 54//174
f 60//175 48//175 58//175
f 56//176 52//176 53//176
f 56//177 54//177 55//177
f 40//178 60//178 45//178
f 55//179 57//179 50//179
f 58//180 52//180 50//180
f 50//181 47//181 58//181
f 31//182 49//182 59//182
f 61//183 40//183 45//183
f 48//184 52//184 58//184
f 59//185 49//185 55//185
f 52//186 56//186 50//186
f 48//187 46//187 53//187
f 48//188 44//188 46//188
f 51//189 44//189 48//189
f 52//190 48//190 53//190
f 6//191 5//191 11//191
f 11//192 5//192 8//192
f 4//193 8//193 5//193
