# Blender v2.77 (sub 0) OBJ File: 'Low_Poly_Tree_Stump_002.blend'
# www.blender.org
mtllib Low_Poly_Tree_Stump_002.mtl
o Low_Poly_Tree_Stump_002_Cylinder.001
v 0.186177 0.724010 -0.107489
v 0.233500 -0.786069 -0.134811
v -0.000000 -0.786069 -0.269622
v -0.000000 0.724010 -0.214978
v 0.186177 0.724010 0.107489
v 0.233500 -0.786069 0.134811
v -0.233500 -0.786069 -0.134811
v -0.186177 0.724010 -0.107489
v -0.000000 0.724010 0.214978
v -0.000000 -0.786069 0.269622
v -0.233500 -0.786069 0.134811
v -0.186177 0.724010 0.107489
vn 0.4998 0.0313 -0.8656
vn 0.9995 0.0313 0.0000
vn -0.4998 0.0313 -0.8656
vn 0.4998 0.0313 0.8656
vn -0.9995 0.0313 0.0000
vn -0.4998 0.0313 0.8656
vn 0.0000 1.0000 0.0000
usemtl Low_Poly_Tree_Stump_002_Mat_01
s off
f 1//1 2//1 3//1 4//1
f 5//2 6//2 2//2 1//2
f 4//3 3//3 7//3 8//3
f 9//4 10//4 6//4 5//4
f 8//5 7//5 11//5 12//5
f 12//6 11//6 10//6 9//6
usemtl Low_Poly_Tree_Stump_002_Mat_02
f 8//7 12//7 9//7 5//7 1//7 4//7
