# Blender v2.77 (sub 0) OBJ File: 'Low_Poly_Tree_001.blend'
# www.blender.org
mtllib Low_Poly_Tree_001.mtl
o Low_Poly_Tree_001_Icosphere
v -0.786061 5.661943 -2.470824
v -2.437987 4.477605 -0.153650
v -1.443913 6.137259 0.031928
v 0.812717 6.228543 -0.958143
v 1.230709 4.920333 -1.679539
v 0.130497 3.380233 -1.659293
v -1.754439 4.995957 2.327136
v 0.373379 6.073228 1.084459
v 2.481676 5.489356 0.260470
v 1.799429 3.669492 -0.094107
v -0.752899 3.324883 1.047321
v 1.274389 4.687275 2.282532
v -1.306987 5.996388 -1.395362
v -1.954209 5.044000 -1.610213
v -2.131718 5.409791 -0.085630
v -1.489358 3.767552 -1.122247
v -0.301505 4.341557 -2.841045
v 0.074752 6.193865 -1.947787
v -0.382451 6.319434 -0.624433
v 0.468436 5.390556 -2.658393
v 1.335462 5.829441 -1.557548
v 0.773153 3.977195 -2.048342
v -2.086231 3.762133 0.606238
v -0.091175 3.099144 -0.590685
v -1.946882 5.923085 1.429635
v -2.531473 4.719382 1.299215
v 0.569423 6.358890 0.219288
v -0.600152 6.268174 0.686737
v 2.274851 5.314771 -0.710755
v 1.779949 5.959951 -0.377211
v 0.870927 3.346156 -0.989264
v 1.683625 4.206710 -0.958182
v -1.525089 4.177461 2.111691
v -0.723640 5.745903 2.187350
v 1.740330 5.937145 0.942186
v 2.641934 4.714599 0.238284
v 0.846674 3.225099 0.172828
v -0.534237 4.703103 3.053290
v 0.077092 3.803813 2.267245
v 0.972985 5.538565 2.087950
v 2.222600 5.123422 1.174626
v 1.969465 4.052052 1.022241
v -0.343300 -0.228643 -1.004284
v -1.035942 -0.228643 -0.054435
v -0.346620 -0.228643 0.897826
v 0.772047 -0.228643 0.536507
v 0.774098 -0.228643 -0.639062
v -0.137937 1.143272 -0.658593
v -0.637893 1.143272 0.027017
v -0.140333 1.143272 0.714368
v 0.667131 1.143272 0.453564
v 0.668611 1.143272 -0.394972
v -0.168734 2.974022 -0.244549
v -0.364591 2.974022 0.024038
v -0.169672 2.974022 0.293308
v 0.146651 2.974022 0.191138
v 0.147231 2.974022 -0.141276
v -0.070285 4.542023 -0.083639
vn 0.3050 0.1895 -0.9333
vn 0.3064 0.0808 0.9485
vn -0.7802 0.2601 -0.5689
vn 0.9971 0.0764 0.0017
vn -0.7943 0.1963 0.5750
vn 0.9618 0.2737 0.0017
vn -0.8041 0.1210 0.5821
vn 0.3034 0.2150 -0.9283
vn 0.2999 0.2184 0.9286
vn -0.8023 0.1188 -0.5850
vn 0.3097 0.0778 -0.9476
vn 0.3008 0.2048 0.9314
vn -0.8030 0.1105 -0.5856
vn 0.9905 0.1373 0.0017
vn -0.7955 0.1888 0.5758
vn -0.6623 0.5619 -0.4956
vn -0.7803 -0.4501 -0.4342
vn -0.2872 0.8664 -0.4085
vn 0.0346 0.6716 -0.7401
vn -0.0933 0.2369 -0.9670
vn -0.7327 -0.6310 -0.2550
vn -0.7065 0.6920 -0.1482
vn 0.0476 0.9938 -0.1002
vn 0.6757 0.0210 -0.7368
vn 0.4120 -0.7656 -0.4942
vn -0.9029 -0.4297 0.0134
vn -0.2089 0.9751 0.0742
vn 0.2925 0.9552 -0.0453
vn 0.7071 -0.2278 -0.6694
vn 0.1556 -0.9628 -0.2210
vn -0.5396 -0.3525 0.7646
vn 0.1342 0.9056 0.4023
vn 0.7209 0.5483 0.4238
vn 0.7576 -0.6442 0.1054
vn 0.1052 -0.9479 0.3006
vn 0.4742 -0.6529 0.5906
vn 0.3548 -0.8595 0.3679
vn 0.4627 -0.8579 0.2235
vn 0.7816 -0.2650 0.5646
vn 0.8312 -0.2658 0.4883
vn 0.9246 0.1817 0.3348
vn 0.6249 0.3775 0.6834
vn 0.6082 0.5294 0.5915
vn 0.1321 0.9054 0.4035
vn 0.3725 0.3301 0.8673
vn 0.1232 0.6471 0.7524
vn -0.3136 0.5723 0.7577
vn 0.3412 -0.4764 0.8103
vn -0.2320 -0.7248 0.6487
vn -0.2427 -0.8354 0.4931
vn 0.0165 -0.9896 0.1430
vn 0.2096 -0.9730 -0.0970
vn 0.4011 -0.9119 -0.0866
vn 0.7698 -0.4907 -0.4082
vn 0.8016 -0.3141 -0.5087
vn 0.9496 0.2033 -0.2388
vn 0.5373 0.8428 0.0307
vn 0.3245 0.9455 0.0261
vn 0.1279 0.9328 0.3370
vn 0.0529 0.9418 0.3321
vn -0.0635 0.9441 0.3234
vn -0.3500 0.6130 0.7083
vn -0.6957 -0.3588 0.6224
vn -0.6688 -0.6142 0.4188
vn -0.3992 -0.8348 0.3791
vn 0.6535 -0.6005 -0.4609
vn 0.6652 -0.6128 -0.4266
vn 0.7743 -0.1338 -0.6185
vn 0.6926 0.6698 -0.2679
vn 0.6623 0.6756 -0.3241
vn 0.3938 0.8856 -0.2462
vn 0.0565 0.9442 0.3245
vn -0.0662 0.9974 0.0280
vn -0.1621 0.9867 0.0117
vn -0.7936 0.3301 0.5111
vn -0.8971 0.4400 -0.0396
vn -0.9414 0.3176 -0.1134
vn -0.3129 -0.9498 0.0045
vn -0.3848 -0.9129 -0.1358
vn -0.3153 -0.8997 -0.3020
vn 0.2515 -0.7038 -0.6644
vn 0.5220 -0.2407 -0.8183
vn 0.7562 -0.1150 -0.6441
vn 0.7871 -0.0079 -0.6168
vn 0.3873 0.7100 -0.5881
vn 0.3476 0.8915 -0.2904
vn 0.0546 0.9956 -0.0756
vn -0.2027 0.9658 -0.1617
vn -0.2384 0.9640 -0.1180
vn -0.3560 -0.7844 -0.5080
vn -0.6473 -0.4663 -0.6030
vn -0.5954 0.0067 -0.8034
vn -0.7088 0.6921 -0.1363
vn -0.7799 0.5820 -0.2304
vn -0.9296 0.3189 -0.1847
usemtl Low_Poly_Tree_001_Mat_01
s off
f 48//1 52//1 47//1
f 46//2 51//2 50//2
f 49//3 48//3 43//3
f 52//4 51//4 46//4
f 45//5 50//5 49//5
f 52//6 57//6 56//6
f 49//7 50//7 55//7
f 48//8 53//8 57//8
f 50//9 51//9 56//9
f 49//10 54//10 53//10
f 57//11 53//11 58//11
f 55//12 56//12 58//12
f 53//13 54//13 58//13
f 56//14 57//14 58//14
f 54//15 55//15 58//15
f 43//1 48//1 47//1
f 45//2 46//2 50//2
f 44//3 49//3 43//3
f 47//4 52//4 46//4
f 44//5 45//5 49//5
f 51//6 52//6 56//6
f 54//7 49//7 55//7
f 52//8 48//8 57//8
f 55//9 50//9 56//9
f 48//10 49//10 53//10
usemtl Low_Poly_Tree_001_Mat_02
f 1//16 14//16 13//16
f 2//17 14//17 16//17
f 1//18 13//18 18//18
f 1//19 18//19 20//19
f 1//20 20//20 17//20
f 2//21 16//21 23//21
f 3//22 15//22 25//22
f 4//23 19//23 27//23
f 5//24 21//24 29//24
f 6//25 22//25 31//25
f 2//26 23//26 26//26
f 3//27 25//27 28//27
f 4//28 27//28 30//28
f 5//29 29//29 32//29
f 6//30 31//30 24//30
f 7//31 33//31 38//31
f 8//32 34//32 40//32
f 9//33 35//33 41//33
f 10//34 36//34 42//34
f 11//35 37//35 39//35
f 39//36 42//36 12//36
f 39//37 37//37 42//37
f 37//38 10//38 42//38
f 42//39 41//39 12//39
f 42//40 36//40 41//40
f 36//41 9//41 41//41
f 41//42 40//42 12//42
f 41//43 35//43 40//43
f 35//44 8//44 40//44
f 40//45 38//45 12//45
f 40//46 34//46 38//46
f 34//47 7//47 38//47
f 38//48 39//48 12//48
f 38//49 33//49 39//49
f 33//50 11//50 39//50
f 24//51 37//51 11//51
f 24//52 31//52 37//52
f 31//53 10//53 37//53
f 32//54 36//54 10//54
f 32//55 29//55 36//55
f 29//56 9//56 36//56
f 30//57 35//57 9//57
f 30//58 27//58 35//58
f 27//59 8//59 35//59
f 28//60 34//60 8//60
f 28//61 25//61 34//61
f 25//62 7//62 34//62
f 26//63 33//63 7//63
f 26//64 23//64 33//64
f 23//65 11//65 33//65
f 31//66 32//66 10//66
f 31//67 22//67 32//67
f 22//68 5//68 32//68
f 29//69 30//69 9//69
f 29//70 21//70 30//70
f 21//71 4//71 30//71
f 27//72 28//72 8//72
f 27//73 19//73 28//73
f 19//74 3//74 28//74
f 25//75 26//75 7//75
f 25//76 15//76 26//76
f 15//77 2//77 26//77
f 23//78 24//78 11//78
f 23//79 16//79 24//79
f 16//80 6//80 24//80
f 17//81 22//81 6//81
f 17//82 20//82 22//82
f 20//83 5//83 22//83
f 20//84 21//84 5//84
f 20//85 18//85 21//85
f 18//86 4//86 21//86
f 18//87 19//87 4//87
f 18//88 13//88 19//88
f 13//89 3//89 19//89
f 16//90 17//90 6//90
f 16//91 14//91 17//91
f 14//92 1//92 17//92
f 13//93 15//93 3//93
f 13//94 14//94 15//94
f 14//95 2//95 15//95
